<svg width="265" height="92" viewBox="0 0 265 92" fill="none" xmlns="http://www.w3.org/2000/svg">
<g clip-path="url(#clip0_111_19997)">
<path d="M70.1082 47.1392H59.3545C59.4287 48.1424 59.7387 48.9097 60.286 49.4396C60.8319 49.9709 61.5036 50.2359 62.3 50.2359C63.4858 50.2359 64.31 49.7143 64.7737 48.6724H69.8313C69.5716 49.7336 69.1038 50.6885 68.4281 51.5372C67.751 52.3859 66.9043 53.0525 65.8854 53.5341C64.8665 54.0171 63.727 54.2572 62.4669 54.2572C60.9471 54.2572 59.5956 53.9205 58.4098 53.2443C57.2239 52.5695 56.2977 51.6048 55.6312 50.3504C54.9648 49.096 54.6309 47.6305 54.6309 45.951C54.6309 44.2716 54.9595 42.806 55.618 41.5516C56.2752 40.2972 57.1974 39.3326 58.3833 38.6578C59.5691 37.9829 60.9299 37.6448 62.4682 37.6448C64.0066 37.6448 65.3024 37.9733 66.4697 38.6288C67.6371 39.2843 68.5487 40.2213 69.2072 41.4357C69.8644 42.6515 70.1943 44.0701 70.1943 45.6902C70.1943 46.1539 70.1665 46.6355 70.1108 47.1378L70.1082 47.1392ZM65.3289 44.3902C65.3289 43.5415 65.0507 42.8667 64.4955 42.3644C63.9403 41.8635 63.2447 41.6123 62.4113 41.6123C61.5778 41.6123 60.9432 41.8538 60.3973 42.3354C59.85 42.8184 59.5122 43.5029 59.3823 44.3902H65.3289Z" fill="url(#paint0_linear_111_19997)"/>
<path d="M73.0404 35.4327C72.513 34.9221 72.248 34.2901 72.248 33.5366C72.248 32.7831 72.5117 32.1235 73.0404 31.6115C73.5677 31.1009 74.2488 30.8442 75.0835 30.8442C75.9183 30.8442 76.5702 31.0995 77.0989 31.6115C77.6262 32.1235 77.8912 32.7652 77.8912 33.5366C77.8912 34.308 77.6275 34.9207 77.0989 35.4327C76.5715 35.9447 75.8997 36.2 75.0835 36.2C74.2673 36.2 73.5691 35.9447 73.0404 35.4327ZM77.4447 37.8781V54.0281H72.6932V37.8781H77.4447Z" fill="url(#paint1_linear_111_19997)"/>
<path d="M89.6576 38.3417C90.4817 38.8054 91.1164 39.4126 91.5616 40.1647V37.878H96.313V53.9991C96.313 55.484 96.0308 56.8309 95.465 58.037C94.8993 59.2431 94.038 60.2022 92.8813 60.917C91.7232 61.6305 90.283 61.9879 88.5605 61.9879C86.2629 61.9879 84.4013 61.4235 82.9756 60.2946C81.5486 59.1658 80.7337 57.6368 80.5296 55.7076H85.2254C85.3738 56.3244 85.7263 56.8115 86.2815 57.169C86.8366 57.5264 87.5217 57.7044 88.3379 57.7044C89.3197 57.7044 90.1028 57.4105 90.6858 56.8212C91.2688 56.2319 91.5616 55.2922 91.5616 53.9991V51.7125C91.0978 52.4646 90.4592 53.0773 89.6443 53.5506C88.8294 54.024 87.8754 54.2599 86.7823 54.2599C85.5037 54.2599 84.3456 53.9177 83.3082 53.2318C82.2707 52.5474 81.4505 51.5731 80.849 50.309C80.2461 49.0449 79.9453 47.5835 79.9453 45.9248C79.9453 44.266 80.2461 42.8088 80.849 41.5543C81.4505 40.2999 82.2707 39.3353 83.3082 38.6605C84.3456 37.9857 85.5037 37.6476 86.7823 37.6476C87.8754 37.6476 88.8334 37.8794 89.6589 38.3417H89.6576ZM90.5745 43.0309C89.9173 42.3175 89.1156 41.9601 88.1709 41.9601C87.2262 41.9601 86.4246 42.312 85.7674 43.0171C85.1088 43.7223 84.7802 44.6911 84.7802 45.9262C84.7802 47.1613 85.1088 48.1397 85.7674 48.8642C86.4246 49.5873 87.2262 49.9488 88.1709 49.9488C89.1156 49.9488 89.9173 49.5914 90.5745 48.878C91.2317 48.1645 91.5616 47.1902 91.5616 45.9551C91.5616 44.72 91.233 43.7458 90.5745 43.0323V43.0309Z" fill="url(#paint2_linear_111_19997)"/>
<path d="M113.57 39.5423C114.644 40.7677 115.181 42.4513 115.181 44.5931V54.0281H110.457V45.2582C110.457 44.1777 110.188 43.3387 109.652 42.7397C109.114 42.1422 108.392 41.8427 107.484 41.8427C106.576 41.8427 105.854 42.1422 105.316 42.7397C104.778 43.3387 104.511 44.1777 104.511 45.2582V54.0281H99.7593V32.6106H104.511V40.0488C104.992 39.3353 105.65 38.7654 106.484 38.3417C107.317 37.918 108.253 37.7055 109.29 37.7055C111.068 37.7055 112.495 38.3182 113.57 39.5437V39.5423Z" fill="url(#paint3_linear_111_19997)"/>
<path d="M125.158 38.3417C125.991 37.878 126.945 37.6476 128.02 37.6476C129.299 37.6476 130.455 37.9857 131.494 38.6605C132.532 39.3367 133.352 40.3013 133.953 41.5543C134.555 42.8087 134.857 44.266 134.857 45.9248C134.857 47.5835 134.556 49.0463 133.953 50.309C133.35 51.5731 132.532 52.5474 131.494 53.2318C130.457 53.9177 129.299 54.2599 128.02 54.2599C126.927 54.2599 125.973 54.0322 125.158 53.5796C124.343 53.127 123.703 52.5225 123.241 51.7704V54.0281H118.489V32.6106H123.241V40.1647C123.686 39.4126 124.325 38.804 125.158 38.3417ZM129.035 43.0157C128.378 42.3119 127.567 41.9587 126.604 41.9587C125.64 41.9587 124.857 42.3161 124.2 43.0295C123.541 43.743 123.213 44.7187 123.213 45.9524C123.213 47.1861 123.541 48.1617 124.2 48.8752C124.857 49.5887 125.659 49.9461 126.604 49.9461C127.548 49.9461 128.354 49.5845 129.022 48.8614C129.689 48.1383 130.022 47.1585 130.022 45.9234C130.022 44.6883 129.693 43.7195 129.035 43.0144V43.0157Z" fill="url(#paint4_linear_111_19997)"/>
<path d="M140.316 53.247C139.102 52.5722 138.148 51.6076 137.454 50.3532C136.76 49.0988 136.413 47.6332 136.413 45.9538C136.413 44.2743 136.764 42.8336 137.469 41.5695C138.172 40.3055 139.135 39.3367 140.358 38.6605C141.581 37.9857 142.951 37.6476 144.471 37.6476C145.991 37.6476 147.361 37.9857 148.584 38.6605C149.807 39.3367 150.77 40.3055 151.474 41.5695C152.177 42.8336 152.53 44.295 152.53 45.9538C152.53 47.6125 152.173 49.0753 151.461 50.338C150.748 51.6021 149.775 52.5722 148.543 53.247C147.311 53.9232 145.935 54.2599 144.417 54.2599C142.898 54.2599 141.531 53.9232 140.319 53.247H140.316ZM146.736 48.9345C147.374 48.2404 147.695 47.2468 147.695 45.9538C147.695 44.6607 147.385 43.6671 146.763 42.973C146.142 42.2788 145.379 41.9311 144.471 41.9311C143.564 41.9311 142.777 42.2733 142.164 42.9592C141.554 43.6437 141.248 44.6428 141.248 45.9551C141.248 47.2675 141.548 48.2418 142.151 48.9359C142.753 49.6301 143.508 49.9778 144.416 49.9778C145.323 49.9778 146.097 49.6301 146.736 48.9359V48.9345Z" fill="url(#paint5_linear_111_19997)"/>
<path d="M161.894 38.4714C162.727 37.9608 163.653 37.7042 164.672 37.7042V42.9426H163.366C162.18 42.9426 161.291 43.2076 160.699 43.7389C160.105 44.2702 159.81 45.2003 159.81 46.532V54.0281H155.058V37.878H159.81V40.569C160.365 39.6817 161.06 38.982 161.894 38.4701V38.4714Z" fill="url(#paint6_linear_111_19997)"/>
<path d="M175.719 38.3417C176.543 38.8054 177.178 39.4126 177.623 40.1647V37.878H182.375V53.9991C182.375 55.484 182.092 56.8309 181.527 58.037C180.961 59.2431 180.1 60.2022 178.943 60.917C177.785 61.6305 176.344 61.9879 174.622 61.9879C172.324 61.9879 170.463 61.4235 169.037 60.2946C167.61 59.1658 166.795 57.6368 166.591 55.7076H171.287C171.435 56.3244 171.788 56.8115 172.343 57.169C172.898 57.5264 173.583 57.7044 174.399 57.7044C175.381 57.7044 176.164 57.4105 176.747 56.8212C177.33 56.2319 177.623 55.2922 177.623 53.9991V51.7125C177.159 52.4646 176.521 53.0773 175.706 53.5506C174.891 54.024 173.937 54.2599 172.844 54.2599C171.565 54.2599 170.407 53.9177 169.37 53.2318C168.332 52.5474 167.512 51.5731 166.91 50.309C166.308 49.0449 166.007 47.5835 166.007 45.9248C166.007 44.266 166.308 42.8088 166.91 41.5543C167.512 40.2999 168.332 39.3353 169.37 38.6605C170.407 37.9857 171.565 37.6476 172.844 37.6476C173.937 37.6476 174.895 37.8794 175.72 38.3417H175.719ZM176.636 43.0309C175.979 42.3175 175.177 41.9601 174.232 41.9601C173.288 41.9601 172.486 42.312 171.829 43.0171C171.17 43.7223 170.842 44.6911 170.842 45.9262C170.842 47.1613 171.17 48.1397 171.829 48.8642C172.486 49.5873 173.288 49.9488 174.232 49.9488C175.177 49.9488 175.979 49.5914 176.636 48.878C177.293 48.1645 177.623 47.1902 177.623 45.9551C177.623 44.72 177.295 43.7458 176.636 43.0323V43.0309Z" fill="url(#paint7_linear_111_19997)"/>
<path d="M188.779 53.247C187.566 52.5722 186.612 51.6076 185.917 50.3532C185.223 49.0988 184.876 47.6332 184.876 45.9538C184.876 44.2743 185.227 42.8336 185.932 41.5695C186.636 40.3055 187.599 39.3367 188.822 38.6605C190.045 37.9857 191.415 37.6476 192.935 37.6476C194.454 37.6476 195.824 37.9857 197.047 38.6605C198.27 39.3367 199.234 40.3055 199.937 41.5695C200.641 42.8336 200.993 44.295 200.993 45.9538C200.993 47.6125 200.637 49.0753 199.924 50.338C199.211 51.6021 198.239 52.5722 197.006 53.247C195.774 53.9232 194.399 54.2599 192.88 54.2599C191.362 54.2599 189.994 53.9232 188.782 53.247H188.779ZM195.199 48.9345C195.838 48.2404 196.158 47.2468 196.158 45.9538C196.158 44.6607 195.848 43.6671 195.227 42.973C194.605 42.2788 193.842 41.9311 192.935 41.9311C192.027 41.9311 191.24 42.2733 190.628 42.9592C190.017 43.6437 189.711 44.6428 189.711 45.9551C189.711 47.2675 190.012 48.2418 190.615 48.9359C191.216 49.6301 191.971 49.9778 192.879 49.9778C193.787 49.9778 194.56 49.6301 195.199 48.9359V48.9345Z" fill="url(#paint8_linear_111_19997)"/>
<path d="M206.48 53.247C205.266 52.5722 204.312 51.6076 203.618 50.3532C202.924 49.0988 202.577 47.6332 202.577 45.9538C202.577 44.2743 202.928 42.8336 203.633 41.5695C204.336 40.3055 205.3 39.3367 206.523 38.6605C207.745 37.9857 209.116 37.6476 210.635 37.6476C212.155 37.6476 213.525 37.9857 214.748 38.6605C215.971 39.3367 216.934 40.3055 217.638 41.5695C218.342 42.8336 218.694 44.295 218.694 45.9538C218.694 47.6125 218.338 49.0753 217.625 50.338C216.912 51.6021 215.939 52.5722 214.707 53.247C213.475 53.9232 212.099 54.2599 210.581 54.2599C209.063 54.2599 207.695 53.9232 206.483 53.247H206.48ZM212.9 48.9345C213.538 48.2404 213.859 47.2468 213.859 45.9538C213.859 44.6607 213.549 43.6671 212.928 42.973C212.306 42.2788 211.543 41.9311 210.635 41.9311C209.728 41.9311 208.941 42.2733 208.328 42.9592C207.718 43.6437 207.412 44.6428 207.412 45.9551C207.412 47.2675 207.712 48.2418 208.315 48.9359C208.917 49.6301 209.672 49.9778 210.58 49.9778C211.487 49.9778 212.261 49.6301 212.9 48.9359V48.9345Z" fill="url(#paint9_linear_111_19997)"/>
<path d="M221.181 41.5543C221.783 40.2999 222.603 39.3353 223.64 38.6605C224.678 37.9857 225.836 37.6476 227.114 37.6476C228.133 37.6476 229.063 37.8698 229.907 38.3127C230.75 38.7571 231.413 39.3546 231.895 40.1067V32.6106H236.646V54.0281H231.895V51.7125C231.45 52.4839 230.815 53.1021 229.991 53.5644C229.167 54.0281 228.207 54.2585 227.114 54.2585C225.836 54.2585 224.678 53.9163 223.64 53.2305C222.603 52.546 221.783 51.5717 221.181 50.3076C220.578 49.0436 220.277 47.5821 220.277 45.9234C220.277 44.2646 220.578 42.8074 221.181 41.5529V41.5543ZM230.906 43.0309C230.249 42.3175 229.448 41.96 228.503 41.96C227.558 41.96 226.757 42.3119 226.099 43.0171C225.441 43.7223 225.112 44.6911 225.112 45.9261C225.112 47.1612 225.441 48.1397 226.099 48.8642C226.757 49.5873 227.558 49.9488 228.503 49.9488C229.448 49.9488 230.249 49.5914 230.906 48.878C231.564 48.1645 231.894 47.1902 231.894 45.9551C231.894 44.72 231.565 43.7458 230.906 43.0323V43.0309Z" fill="url(#paint10_linear_111_19997)"/>
<mask id="mask0_111_19997" style="mask-type:luminance" maskUnits="userSpaceOnUse" x="28" y="29" width="25" height="26">
<path d="M28.3192 42.3727V52.8523C28.3192 53.7162 28.991 54.4159 29.8204 54.4159H31.5906C32.4201 54.4159 33.0918 53.7162 33.0918 52.8523V47.0909C33.0918 45.6985 34.7083 45.0002 35.6544 45.9855L43.3089 53.9577C43.5898 54.2503 43.9727 54.4159 44.3702 54.4159H50.5699C51.3994 54.4159 52.0711 53.7162 52.0711 52.8523V42.3644C52.0711 41.9504 51.9135 41.5516 51.6312 41.259L41.2525 30.4495C40.6669 29.8396 39.7155 29.8396 39.1299 30.4495L37.7426 31.8944C37.1569 32.5043 37.1569 33.4952 37.7426 34.1051L46.7566 43.4932C47.0375 43.7858 47.1965 44.1846 47.1965 44.5986V50.4581L34.6646 37.4061C34.0829 36.8003 33.1409 36.7947 32.5526 37.395L28.7684 41.2563C28.4795 41.5502 28.3179 41.9532 28.3179 42.3727H28.3192Z" fill="white"/>
</mask>
<g mask="url(#mask0_111_19997)">
<path d="M38.5613 71.4105L34.5718 48.0017L42.3535 70.352L38.5613 71.4105ZM32.6081 71.6879H36.5341L34.5704 48.0017L32.6081 71.6879ZM30.5809 71.4105L34.5704 48.0017L26.7887 70.352L30.5809 71.4105ZM24.8993 69.5378L34.5704 48.003L21.4993 67.4941L24.8993 69.5392V69.5378ZM19.8775 66.1969L34.5704 48.0017L17.1003 63.3044L19.8762 66.1955L19.8775 66.1969ZM15.8561 61.6167L34.5704 48.003L13.8938 58.0756L15.8561 61.6167ZM13.1107 56.1077L34.5704 48.003L12.0945 52.1582L13.1107 56.1077ZM11.8281 50.0468L34.5704 48.0017L11.8281 45.9579V50.0468ZM12.0945 43.8465L34.5704 48.0017L13.1107 39.897L12.0945 43.8465ZM13.8925 37.9291L34.5691 48.0017L15.8548 34.388L13.8911 37.9291H13.8925ZM17.1003 32.6989L34.5704 48.0017L19.8775 29.8065L17.1016 32.6975L17.1003 32.6989ZM21.498 28.5106L34.5691 48.0017L24.8979 26.4669L21.498 28.5106ZM26.7874 25.6513L34.5691 48.0017L30.5795 24.5928L26.7874 25.6513ZM32.6068 24.3155L34.5704 48.0017L36.5328 24.3155H32.6068ZM38.56 24.5928L34.5704 48.0017L42.3522 25.6513L38.56 24.5928ZM44.2416 26.4655L34.5704 48.0003L47.6416 28.5093L44.2416 26.4641V26.4655ZM49.2634 29.8065L34.5704 48.0017L52.0406 32.6989L49.2647 29.8078L49.2634 29.8065ZM53.2847 34.3866L34.5704 48.0003L55.2471 37.9277L53.2847 34.3866ZM56.0301 39.8956L34.5704 48.0003L57.0464 43.8451L56.0301 39.8956ZM57.3127 45.9565L34.5704 48.0017L57.3127 50.0454V45.9565ZM57.0464 52.1568L34.5704 48.0017L56.0301 56.1064L57.0464 52.1568ZM55.2484 58.0742L34.5718 48.0017L53.2861 61.6153L55.2497 58.0742H55.2484ZM52.0406 63.3044L34.5704 48.0017L49.2634 66.1969L52.0392 63.3058L52.0406 63.3044ZM47.6429 67.4927L34.5718 48.0017L44.2429 69.5365L47.6429 67.4927Z" fill="url(#paint11_linear_111_19997)"/>
</g>
</g>
<defs>
<linearGradient id="paint0_linear_111_19997" x1="27.8659" y1="49.3762" x2="229.098" y2="31.0169" gradientUnits="userSpaceOnUse">
<stop stop-color="#FCD416"/>
<stop offset="1" stop-color="#EF5126"/>
</linearGradient>
<linearGradient id="paint1_linear_111_19997" x1="27.6698" y1="47.2358" x2="228.902" y2="28.8766" gradientUnits="userSpaceOnUse">
<stop stop-color="#FCD416"/>
<stop offset="1" stop-color="#EF5126"/>
</linearGradient>
<linearGradient id="paint2_linear_111_19997" x1="28.4412" y1="55.6896" x2="229.673" y2="37.3304" gradientUnits="userSpaceOnUse">
<stop stop-color="#FCD416"/>
<stop offset="1" stop-color="#EF5126"/>
</linearGradient>
<linearGradient id="paint3_linear_111_19997" x1="28.0304" y1="51.1812" x2="229.262" y2="32.822" gradientUnits="userSpaceOnUse">
<stop stop-color="#FCD416"/>
<stop offset="1" stop-color="#EF5126"/>
</linearGradient>
<linearGradient id="paint4_linear_111_19997" x1="28.1839" y1="52.8606" x2="229.416" y2="34.5014" gradientUnits="userSpaceOnUse">
<stop stop-color="#FCD416"/>
<stop offset="1" stop-color="#EF5126"/>
</linearGradient>
<linearGradient id="paint5_linear_111_19997" x1="28.5986" y1="57.4174" x2="229.831" y2="39.0582" gradientUnits="userSpaceOnUse">
<stop stop-color="#FCD416"/>
<stop offset="1" stop-color="#EF5126"/>
</linearGradient>
<linearGradient id="paint6_linear_111_19997" x1="28.7153" y1="58.6925" x2="229.947" y2="40.332" gradientUnits="userSpaceOnUse">
<stop stop-color="#FCD416"/>
<stop offset="1" stop-color="#EF5126"/>
</linearGradient>
<linearGradient id="paint7_linear_111_19997" x1="29.2125" y1="64.131" x2="230.444" y2="45.7705" gradientUnits="userSpaceOnUse">
<stop stop-color="#FCD416"/>
<stop offset="1" stop-color="#EF5126"/>
</linearGradient>
<linearGradient id="paint8_linear_111_19997" x1="29.0334" y1="62.1714" x2="230.265" y2="43.811" gradientUnits="userSpaceOnUse">
<stop stop-color="#FCD416"/>
<stop offset="1" stop-color="#EF5126"/>
</linearGradient>
<linearGradient id="paint9_linear_111_19997" x1="29.1911" y1="63.9075" x2="230.423" y2="45.5483" gradientUnits="userSpaceOnUse">
<stop stop-color="#FCD416"/>
<stop offset="1" stop-color="#EF5126"/>
</linearGradient>
<linearGradient id="paint10_linear_111_19997" x1="29.1646" y1="63.6177" x2="230.397" y2="45.2584" gradientUnits="userSpaceOnUse">
<stop stop-color="#FCD416"/>
<stop offset="1" stop-color="#EF5126"/>
</linearGradient>
<linearGradient id="paint11_linear_111_19997" x1="27.801" y1="48.6723" x2="229.033" y2="30.3119" gradientUnits="userSpaceOnUse">
<stop stop-color="#FCD416"/>
<stop offset="1" stop-color="#EF5126"/>
</linearGradient>
<clipPath id="clip0_111_19997">
<rect width="265" height="92" fill="white"/>
</clipPath>
</defs>
</svg>
